<svg xmlns="http://www.w3.org/2000/svg" viewBox="0 0 400 300" width="100%" height="auto" role="img" aria-labelledby="tv-title" style="display:block;width:100%;height:auto" ><title id="tv-title">TV</title><g fill="none" stroke="#DDE6F0" stroke-width="2" stroke-linecap="round" stroke-linejoin="round"><rect x="18" y="42" width="248" height="152" rx="6"></rect><rect x="30" y="54" width="224" height="128" rx="3"></rect><path d="M142 194v26"></path><path d="M96 226h92a6 6 0 0 0 0-12H96a6 6 0 0 0 0 12z"></path></g><g fill="none" stroke="#8DC63F" stroke-width="2.5" stroke-linejoin="round"><path d="M128 96l44 22-44 22z"></path></g><g transform="translate(316 148) rotate(14)"><g fill="none" stroke="#DDE6F0" stroke-width="2" stroke-linecap="round" stroke-linejoin="round"><rect x="-30" y="-118" width="60" height="236" rx="26"></rect><circle cx="0" cy="-92" r="9"></circle><path d="M0 -96v5"></path><circle cx="0" cy="-46" r="24"></circle><circle cx="0" cy="-46" r="9"></circle><circle cx="-20" cy="4" r="7"></circle><circle cx="0" cy="4" r="7"></circle><circle cx="20" cy="4" r="7"></circle><circle cx="-20" cy="24" r="7"></circle><circle cx="0" cy="24" r="7"></circle><circle cx="20" cy="24" r="7"></circle><circle cx="-20" cy="44" r="7"></circle><circle cx="0" cy="44" r="7"></circle><circle cx="20" cy="44" r="7"></circle><circle cx="-20" cy="64" r="7"></circle><circle cx="0" cy="64" r="7"></circle><circle cx="20" cy="64" r="7"></circle></g><g fill="#8DC63F"><circle cx="0" cy="-92" r="3"></circle></g></g></svg>